<svg width="20" height="20" viewBox="0 0 20 20" fill="none" xmlns="http://www.w3.org/2000/svg">
<g clip-path="url(#clip0_8042_321)">
<path d="M10 20C15.5229 20 20 15.5229 20 10C20 4.47715 15.5229 0 10 0C4.47715 0 0 4.47715 0 10C0 15.5229 4.47715 20 10 20Z" fill="#1F1F20"/>
<path d="M11.3628 13.7881C11.1948 13.7876 11.0442 13.6845 10.9827 13.5282C10.9213 13.3718 10.9614 13.1938 11.0841 13.079C12.6255 11.6442 13.6339 10.2094 13.8552 9.09438C13.9914 8.15861 13.5409 7.23483 12.7197 6.76597C12.0146 6.42163 11.2153 6.71268 10.4692 7.58584L9.64928 8.49998C9.49876 8.66979 9.23906 8.68538 9.06925 8.53483C8.89944 8.38428 8.88385 8.12458 9.03443 7.95478L9.85426 7.04472C11.2644 5.40499 12.5803 5.79033 13.0805 6.03219C14.2412 6.66085 14.8762 7.95573 14.6629 9.25834C14.3184 10.9883 12.6131 12.7715 11.6457 13.6816C11.5684 13.7518 11.4672 13.7899 11.3628 13.7881ZM10.4856 14.6367C10.6215 14.4557 10.5848 14.1987 10.4036 14.0629C9.00989 13.0175 6.80854 10.8326 6.46008 9.0945C6.34002 8.28686 6.65097 7.47526 7.27996 6.95463C7.72002 6.58498 8.33894 6.5155 8.85001 6.77836C9.05395 6.86953 9.29338 6.78059 9.38833 6.57837C9.48328 6.37614 9.39886 6.13512 9.19844 6.03638C8.40646 5.6428 7.4575 5.7486 6.77164 6.30694C5.89567 7.0172 5.46452 8.1404 5.64022 9.25436C6.05016 11.3696 8.60815 13.7636 9.89533 14.7187C10.0765 14.8546 10.3334 14.8179 10.4692 14.6367H10.4856Z" fill="#C9DBEC"/>
</g>
<defs>
<clipPath id="clip0_8042_321">
<rect width="20" height="20" fill="white"/>
</clipPath>
</defs>
</svg>
