<svg width="29" height="33" viewBox="0 0 29 33" fill="none" xmlns="http://www.w3.org/2000/svg">
<path d="M0 5.16016C0.0587215 5.22168 0.161661 5.27805 0.169178 5.34554C0.242315 6.00275 0.6424 6.44399 1.12853 6.79703C5.59261 10.0389 10.0577 13.2795 14.5379 16.4978C15.62 17.2752 16.4781 17.2302 17.5461 16.4594C19.9861 14.698 22.4242 12.9337 24.8589 11.1648C26.2394 10.1617 27.2463 8.85777 27.7728 7.20651C27.9566 6.63028 28.0272 6.0165 28.1045 5.64003C28.1045 7.07858 28.2085 8.7464 28.078 10.3948C27.9171 12.4271 26.9198 14.103 25.3269 15.3097C22.6734 17.3198 19.9676 19.2587 17.2605 21.1935C16.3802 21.8226 15.4477 21.6579 14.5853 21.0829C13.701 20.4932 12.8236 19.8911 11.9635 19.2653C8.39948 16.6718 4.84426 14.0657 1.28303 11.4682C0.67291 11.0232 0.191022 10.4972 0.0825109 9.70172C0.0850755 8.40929 0.0895857 7.11676 0.0863136 5.82433C0.0860483 5.72617 0.0300683 5.62818 0 5.5302C0 5.40688 0 5.28356 0 5.16016Z" fill="url(#paint0_linear_7751_333)"/>
<path d="M0 5.28906C0.0587216 5.35059 0.161661 5.40695 0.169178 5.47445C0.242315 6.13165 0.6424 6.5729 1.12853 6.92593C5.59261 10.1678 10.0577 13.4084 14.5379 16.6267C15.62 17.4041 16.4781 17.3591 17.5461 16.5883C19.9861 14.8269 22.4242 13.0627 24.8589 11.2937C26.2394 10.2906 27.2463 8.98668 27.7728 7.33542C27.9566 6.75919 28.0272 6.14541 28.1045 5.76894C28.1045 7.20749 28.2085 8.8753 28.078 10.5237C27.9171 12.556 26.9199 14.2319 25.3269 15.4386C22.6734 17.4487 19.9676 19.3876 17.2605 21.3224C16.3802 21.9515 15.4477 21.7868 14.5853 21.2118C13.701 20.6221 12.8236 20.02 11.9635 19.3942C8.39948 16.8007 4.84426 14.1946 1.28303 11.5971C0.67291 11.1521 0.191022 10.6261 0.0825109 9.83062C0.0850755 8.53819 0.0895857 7.24567 0.0863136 5.95324C0.0860483 5.85507 0.0300683 5.75709 0 5.6591C0 5.53579 0 5.41247 0 5.28906Z" fill="url(#paint1_linear_7751_333)"/>
<path d="M8.8436e-05 15.6055C0.0562453 15.6441 0.157151 15.6778 0.161838 15.722C0.23975 16.4548 0.719603 16.8973 1.25128 17.2944C3.29742 18.8225 5.33278 20.3662 7.40129 21.8622C9.69143 23.5183 12.0113 25.1316 14.3223 26.7577C15.6464 27.6894 16.3811 27.6933 17.7033 26.7441C20.0486 25.0604 22.3793 23.3555 24.7232 21.6695C26.1201 20.6647 27.1788 19.3892 27.7279 17.7266C27.9317 17.1092 28.0145 16.4503 28.2345 15.8091C28.174 17.5987 28.2262 19.4017 28.0225 21.1742C27.8044 23.0732 26.7848 24.624 25.2879 25.7528C22.6547 27.7384 19.9726 29.6572 17.2943 31.5797C16.3555 32.2535 15.3985 32.0535 14.5032 31.4416C13.3373 30.6445 12.1738 29.8425 11.0319 29.0104C7.74027 26.6119 4.46009 24.1971 1.17523 21.7891C0.588099 21.3587 0.168294 20.8184 0.0773815 20.0603C0.0814495 18.7507 0.0871094 17.4413 0.085606 16.1319C0.0855176 16.049 0.0298029 15.9661 0 15.8832C8.8436e-05 15.7905 8.8436e-05 15.698 8.8436e-05 15.6055Z" fill="url(#paint2_linear_7751_333)"/>
<path d="M8.8436e-05 15.457C0.0562453 15.4957 0.157151 15.5293 0.161838 15.5736C0.23975 16.3064 0.719603 16.7488 1.25128 17.1459C3.29742 18.674 5.33278 20.2177 7.40129 21.7137C9.69143 23.3699 12.0113 24.9832 14.3223 26.6092C15.6464 27.5409 16.3811 27.5448 17.7033 26.5957C20.0486 24.912 22.3793 23.2071 24.7232 21.5211C26.1201 20.5163 27.1788 19.2408 27.7279 17.5781C27.9317 16.9608 28.0145 16.3019 28.2345 15.6607C28.174 17.4503 28.2262 19.2533 28.0225 21.0258C27.8044 22.9247 26.7848 24.4756 25.2879 25.6043C22.6547 27.59 19.9726 29.5088 17.2943 31.4313C16.3555 32.1051 15.3985 31.9051 14.5032 31.2932C13.3373 30.4961 12.1738 29.6941 11.0319 28.862C7.74027 26.4635 4.46009 24.0487 1.17523 21.6406C0.588099 21.2102 0.168294 20.67 0.0773815 19.9118C0.0814495 18.6023 0.0871094 17.2929 0.085606 15.9834C0.0855176 15.9005 0.0298029 15.8177 0 15.7348C8.8436e-05 15.6421 8.8436e-05 15.5496 8.8436e-05 15.457Z" fill="url(#paint3_linear_7751_333)"/>
<path d="M6.54688 4.80757C6.6232 4.71863 6.66255 4.64987 6.72065 4.60826C8.14102 3.59105 9.53636 2.53385 10.9931 1.57382C12.5006 0.580407 14.1653 -0.00288447 15.9864 1.07272e-05C17.6839 0.00272497 19.2236 0.554531 20.6197 1.50786C21.2945 1.96874 21.9478 2.47739 22.5466 3.03616C23.5145 3.93937 23.6147 5.54793 22.8445 6.62928C22.6724 6.87094 22.4934 6.88659 22.2674 6.73224C21.9538 6.51809 21.6426 6.29986 21.3235 6.09458C18.1015 4.02134 14.879 4.04369 11.6575 6.09729C11.1455 6.42363 10.6386 6.75884 10.117 7.06827C10.0123 7.13042 9.81219 7.15494 9.72278 7.09432C8.71744 6.41223 7.72466 5.71078 6.73064 5.01141C6.67104 4.96961 6.62965 4.90094 6.54688 4.80757Z" fill="url(#paint4_linear_7751_333)"/>
<defs>
<linearGradient id="paint0_linear_7751_333" x1="14.0719" y1="5.16016" x2="14.0719" y2="21.5956" gradientUnits="userSpaceOnUse">
<stop stop-color="#FBFBFF"/>
<stop offset="1" stop-color="white"/>
</linearGradient>
<linearGradient id="paint1_linear_7751_333" x1="22.9654" y1="23.6984" x2="21.2788" y2="1.75642" gradientUnits="userSpaceOnUse">
<stop offset="0.0472438" stop-color="white" stop-opacity="0.58"/>
<stop offset="0.917651" stop-color="white" stop-opacity="0.35"/>
</linearGradient>
<linearGradient id="paint2_linear_7751_333" x1="18.0557" y1="18.1943" x2="19.0011" y2="36.7876" gradientUnits="userSpaceOnUse">
<stop stop-color="#BCBDC5" stop-opacity="0.74"/>
<stop offset="1" stop-color="#DDDEE1" stop-opacity="0.3"/>
</linearGradient>
<linearGradient id="paint3_linear_7751_333" x1="14.1173" y1="15.457" x2="14.1173" y2="31.8526" gradientUnits="userSpaceOnUse">
<stop stop-color="white"/>
<stop offset="1" stop-color="white"/>
</linearGradient>
<linearGradient id="paint4_linear_7751_333" x1="14.9514" y1="0" x2="14.9514" y2="7.12924" gradientUnits="userSpaceOnUse">
<stop stop-color="white"/>
<stop offset="1" stop-color="white"/>
</linearGradient>
</defs>
</svg>
