<svg width="95" height="80" viewBox="0 0 95 80" fill="none" xmlns="http://www.w3.org/2000/svg">
<path d="M90.1872 27.4912C102.551 45.5276 76.6599 62.8367 64.5871 45.8185C52.5144 28.8003 77.8235 9.30938 90.1872 27.4912Z" fill="#627EEA"/>
<path d="M77.9698 53.5286C73.7516 53.5286 69.2425 51.7832 65.897 48.2923C62.8425 45.3832 60.9516 41.4559 60.6607 37.3832C60.3698 33.3104 61.5334 29.5286 64.297 26.9104L67.788 23.4195C67.9334 23.2741 67.9334 23.2741 68.0789 23.2741C70.697 20.8013 74.3334 19.4923 78.2607 19.7832C82.4789 20.2195 86.2607 21.965 89.3152 25.0195C92.2243 27.9286 94.1153 31.8559 94.5516 35.9286C94.8425 40.0014 93.6789 43.7832 90.9153 46.4014C90.6243 46.6923 90.3334 46.9832 90.0425 47.2741L87.4243 49.8923C86.2607 51.0559 84.6607 52.0741 83.0607 52.6559C81.4607 53.2377 79.7152 53.5286 77.9698 53.5286ZM64.4425 28.6559C62.5516 30.9832 61.6789 33.8923 61.9698 37.2377C62.4061 41.0195 64.0061 44.6559 66.7698 47.2741C72.1516 52.6559 80.1516 53.5286 85.0971 49.6014C79.8607 51.0559 73.7516 49.4559 69.0971 44.9468C64.7334 40.2923 62.988 34.0377 64.4425 28.6559ZM76.9516 21.2377C75.497 21.2377 73.897 21.5286 72.4425 22.1104C70.988 22.6923 69.6789 23.565 68.6607 24.5832C63.8607 29.5286 64.588 38.1105 70.4061 43.9286C75.9334 49.3105 83.9334 50.1832 88.8789 46.1105L89.6061 45.3832C89.6061 45.3832 89.7516 45.2377 89.8971 45.2377C92.0789 42.9105 93.0971 39.7105 92.8062 36.2195C92.3698 32.4377 90.6243 28.9468 88.0062 26.1832C85.2425 23.565 81.7516 21.8195 77.9698 21.3832C77.5334 21.2377 77.2425 21.2377 76.9516 21.2377Z" fill="#2E448E"/>
<path d="M76.2219 21.2367H56.2946C56.1491 21.2367 55.8582 21.0912 55.7128 20.9458C55.5673 20.8003 55.4219 20.6548 55.4219 20.3639C55.4219 20.2185 55.5673 19.9276 55.7128 19.7821C55.8582 19.6367 56.0037 19.4912 56.2946 19.4912H76.2219C76.3673 19.4912 76.6582 19.6367 76.8037 19.7821C76.9492 19.9276 77.0946 20.073 77.0946 20.3639C77.0946 20.5094 76.9492 20.8003 76.8037 20.9458C76.6582 21.0912 76.5128 21.2367 76.2219 21.2367Z" fill="#2E448E"/>
<path d="M60.0722 24.7288H52.654C52.5085 24.7288 52.2176 24.5834 52.0722 24.4379C51.9267 24.2925 51.7812 24.147 51.7812 23.8561C51.7812 23.7107 51.9267 23.4198 52.0722 23.2743C52.2176 23.1288 52.3631 22.9834 52.654 22.9834H60.0722C60.2176 22.9834 60.5085 23.1288 60.654 23.2743C60.7994 23.4198 60.9449 23.5652 60.9449 23.8561C60.9449 24.0016 60.7994 24.2925 60.654 24.4379C60.5085 24.5834 60.2176 24.7288 60.0722 24.7288Z" fill="#2E448E"/>
<path d="M38.4059 7.85563C50.7695 25.892 24.8786 43.2011 12.8059 26.1829C0.733139 9.31018 26.0422 -10.1807 38.4059 7.85563Z" fill="#627EEA"/>
<path d="M26.1807 34.0365C21.9625 34.0365 17.4534 32.291 14.108 28.8001C11.0534 25.891 9.16253 21.9637 8.87162 17.891C8.58071 13.8183 9.74434 10.0364 12.508 7.41826L15.9989 3.92735C16.1444 3.78189 16.1443 3.78189 16.2898 3.78189C18.908 1.30916 22.5444 7.07657e-05 26.4716 0.29098C30.6898 0.727344 34.4716 2.4728 37.5262 5.52735C40.4353 8.43644 42.3262 12.3637 42.7625 16.4364C43.0535 20.5092 41.8898 24.291 39.1262 26.9092C38.8353 27.2001 38.5444 27.491 38.2535 27.7819L35.6353 30.4001C34.4716 31.5637 32.8716 32.5819 31.2716 33.1637C29.6716 33.7456 27.9262 34.0365 26.1807 34.0365ZM12.7989 9.16372C10.908 11.491 10.0353 14.4001 10.3262 17.7455C10.7625 21.5274 12.3625 25.1637 15.1262 27.7819C20.508 33.1637 28.508 34.0365 33.4535 30.1092C28.2171 31.5637 22.108 29.9637 17.4534 25.4546C12.9443 20.8001 11.1989 14.4001 12.7989 9.16372ZM25.1625 1.60007C23.708 1.60007 22.108 1.89098 20.6534 2.4728C19.1989 3.05462 17.8898 3.92735 16.8716 4.94553C12.0716 9.89099 12.7989 18.4728 18.6171 24.291C24.1443 29.6728 32.1444 30.5455 37.0898 26.4728L37.8171 25.7455C37.8171 25.7455 37.9625 25.6001 38.108 25.6001C40.2898 23.2728 41.308 20.0728 41.0171 16.5819C40.5807 12.8001 38.8353 9.30917 36.2171 6.54553C33.4534 3.92735 29.9625 2.18189 26.1807 1.74553C25.7444 1.74553 25.4534 1.60007 25.1625 1.60007Z" fill="#2E448E"/>
<path d="M24.4328 1.74545H4.50554C4.36008 1.74545 4.06917 1.6 3.92372 1.45455C3.77826 1.30909 3.63281 1.16364 3.63281 0.872728C3.63281 0.727274 3.77826 0.436362 3.92372 0.290908C4.06917 0.145453 4.21463 0 4.50554 0H24.4328C24.5783 0 24.8692 0.145453 25.0146 0.290908C25.1601 0.436362 25.3055 0.581819 25.3055 0.872728C25.3055 1.01818 25.1601 1.30909 25.0146 1.45455C24.8692 1.6 24.7237 1.74545 24.4328 1.74545Z" fill="#2E448E"/>
<path d="M8.29091 5.09213H0.872726C0.727271 5.09213 0.436359 4.94668 0.290905 4.80123C0.14545 4.65577 0 4.51032 0 4.21941C0 4.07395 0.14545 3.78304 0.290905 3.63759C0.436359 3.49214 0.581816 3.34668 0.872726 3.34668H8.29091C8.43636 3.34668 8.72728 3.49214 8.87273 3.63759C9.01819 3.78304 9.16364 3.9285 9.16364 4.21941C9.16364 4.36486 9.01819 4.65577 8.87273 4.80123C8.72728 4.94668 8.43636 5.09213 8.29091 5.09213Z" fill="#2E448E"/>
<path d="M53.3892 53.9639C65.7528 72.0002 39.8619 89.3093 27.7892 72.2912C15.571 55.273 41.0255 35.782 53.3892 53.9639Z" fill="#627EEA"/>
<path d="M41.1729 80.0003C36.9547 80.0003 32.5911 78.2549 29.1002 74.764C26.0456 71.8549 24.1547 67.9276 23.8638 63.8549C23.5729 59.7821 24.7365 56.0003 27.5002 53.3821L30.9911 49.8912C31.1365 49.7458 31.1365 49.7458 31.282 49.7458C33.9002 47.273 37.5365 45.9639 41.4638 46.2548C45.682 46.6912 49.4638 48.4367 52.5184 51.4912C55.4275 54.4003 57.3184 58.3276 57.7547 62.4003C58.0457 66.473 56.882 70.2549 54.1184 72.873C53.8275 73.1639 53.5366 73.4549 53.2457 73.7458L50.6275 76.364C49.4638 77.5276 47.8638 78.5458 46.2638 79.1276C44.6638 79.7094 42.9184 80.0003 41.1729 80.0003ZM27.6456 55.1276C25.7547 57.4549 24.882 60.3639 25.1729 63.7094C25.6093 67.4912 27.2093 71.1276 29.9729 73.7458C35.3547 79.1276 43.3547 80.0003 48.3002 76.073C43.0638 77.5276 36.9547 75.9276 32.3002 71.4185C27.7911 66.7639 26.1911 60.3639 27.6456 55.1276ZM40.1547 47.7094C38.7002 47.7094 37.1002 48.0003 35.6456 48.5821C34.1911 49.1639 32.882 50.0367 31.8638 51.0548C27.0638 56.0003 27.7911 64.5821 33.6093 70.4003C39.1365 75.7821 47.1366 76.6549 52.082 72.5821L52.8093 71.8549C52.8093 71.8549 52.9547 71.7094 53.1002 71.7094C55.282 69.3821 56.3002 66.1821 56.0093 62.6912C55.5729 58.9094 53.8275 55.4185 51.2093 52.6549C48.4456 50.0367 44.9547 48.2912 41.1729 47.8548C40.7365 47.7094 40.4456 47.7094 40.1547 47.7094Z" fill="#2E448E"/>
<path d="M39.425 47.7103H19.4977C19.3523 47.7103 19.0614 47.5648 18.9159 47.4194C18.7705 47.2739 18.625 47.1285 18.625 46.8376C18.625 46.6921 18.7705 46.4012 18.9159 46.2558C19.0614 46.1103 19.2068 45.9648 19.4977 45.9648H39.425C39.5705 45.9648 39.8614 46.1103 40.0068 46.2558C40.1523 46.4012 40.2977 46.5467 40.2977 46.8376C40.2977 46.983 40.1523 47.2739 40.0068 47.4194C39.8614 47.7103 39.7159 47.7103 39.425 47.7103Z" fill="#2E448E"/>
<path d="M23.1347 51.055H15.7165C15.571 51.055 15.2801 50.9096 15.1347 50.7641C14.9892 50.6187 14.8438 50.4732 14.8438 50.1823C14.8438 50.0368 14.9892 49.7459 15.1347 49.6005C15.2801 49.455 15.4256 49.3096 15.7165 49.3096H23.1347C23.2801 49.3096 23.571 49.455 23.7165 49.6005C23.8619 49.7459 24.0074 49.8914 24.0074 50.1823C24.0074 50.3278 23.8619 50.6187 23.7165 50.7641C23.571 50.9096 23.4256 51.055 23.1347 51.055Z" fill="#2E448E"/>
<g opacity="0.54">
<path d="M33.1761 15.5632V15.7087C33.1761 15.8541 33.1761 15.9996 33.1761 16.145C33.1761 16.4359 33.1761 16.5814 33.1761 16.8723C33.1761 17.0178 33.1761 17.1632 33.1761 17.4541C33.1761 18.1814 33.0307 18.9087 32.5943 19.4905C32.4489 19.7814 32.158 19.9269 32.0125 20.0723C31.4307 20.5087 30.7034 21.0905 30.1216 21.5269L28.8125 22.3996C28.6671 22.545 28.5216 22.545 28.3761 22.545C28.2307 22.545 27.9398 22.545 27.7943 22.545C27.6489 22.545 27.5034 22.3996 27.5034 22.3996C25.9034 21.2359 24.4489 20.0723 22.8489 18.9087C22.4125 18.4723 21.8307 18.1814 21.3943 17.745C21.1034 17.5996 20.958 17.3087 20.958 17.0178C20.958 17.0178 20.958 16.8723 20.958 16.7268L20.8125 15.1268V14.9814V14.8359C20.8125 14.8359 20.8125 14.8359 20.8125 14.9814C20.8125 15.1269 20.958 15.2723 21.1034 15.4178C21.2489 15.5632 21.2489 15.5632 21.3943 15.7087C22.9943 17.0178 24.7398 18.3269 26.4852 19.4905C26.7761 19.7814 27.0671 19.9269 27.358 20.2178C27.5034 20.3632 27.6489 20.3632 27.7943 20.5087C28.0852 20.6541 28.2307 20.6541 28.5216 20.5087C28.6671 20.5087 28.6671 20.3632 28.6671 20.3632C29.6852 19.6359 30.8489 18.7632 31.8671 18.0359C32.4489 17.5996 32.8852 17.0178 33.0307 16.2905C33.0307 16.145 33.0307 15.9996 33.0307 15.8541C33.1761 15.8541 33.1761 15.7087 33.1761 15.5632Z" fill="#5E71B7"/>
<path d="M33.0277 10.9099V11.0553C33.0277 11.2008 33.0277 11.3463 33.0277 11.4917C33.0277 11.7826 33.0277 11.9281 33.0277 12.219C33.0277 12.3644 33.0277 12.5099 33.0277 12.6553C33.0277 13.819 32.7368 14.6917 31.8641 15.2735C31.2822 15.7099 30.555 16.2917 29.9732 16.7281L28.5186 17.7463C28.3732 17.8917 28.0823 17.8917 27.9368 17.8917C27.7913 17.8917 27.6459 17.8917 27.6459 17.7463C27.5004 17.7463 27.5004 17.6008 27.355 17.6008C26.0459 16.5826 24.5913 15.5644 23.2823 14.5463C22.7004 14.1099 22.1186 13.6735 21.5368 13.0917C21.3913 13.0917 21.3913 12.9463 21.2459 12.9463C20.955 12.8008 20.8095 12.5099 20.8095 12.219C20.8095 12.219 20.8095 12.0735 20.8095 11.9281L20.6641 10.4735V10.3281V10.1826C20.6641 10.1826 20.6641 10.1826 20.6641 10.3281C20.6641 10.4735 20.8095 10.619 20.8095 10.7644C20.955 10.9099 20.955 10.9099 21.1004 11.0553C22.7004 12.3644 24.3004 13.5281 26.0459 14.6917C26.4822 14.9826 26.7732 15.2735 27.2095 15.5644C27.355 15.7099 27.5004 15.7099 27.6459 15.8554C27.7913 15.8554 28.0822 15.8554 28.2277 15.8554C28.3732 15.8554 28.3732 15.7099 28.3732 15.7099C29.3913 14.9826 30.2641 14.2553 31.2823 13.6735C31.4277 13.5281 31.7186 13.3826 31.8641 13.2372C32.3004 12.8008 32.5913 12.219 32.7368 11.6372C32.7368 11.4917 32.7368 11.3463 32.7368 11.3463V11.2008C33.0277 11.0553 33.0277 10.9099 33.0277 10.9099Z" fill="#5E71B7"/>
<path d="M27.3533 8.29004H27.7896C28.3715 8.43549 28.9533 8.58095 29.5351 8.87186C29.9714 9.16277 30.2624 9.30822 30.5533 9.74459C30.6987 9.89004 30.8442 10.1809 30.9896 10.4719C30.9896 10.7628 30.9896 11.0537 30.9896 11.1991C30.9896 11.3446 30.9896 11.3446 30.8442 11.3446C30.8442 11.3446 30.6987 11.49 30.6987 11.3446C30.5533 11.1991 30.4078 11.1991 30.4078 11.0537C29.9714 10.7628 29.3896 10.4719 28.9533 10.3264C28.6624 10.181 28.226 10.1809 27.9351 10.1809C27.2078 10.1809 26.626 10.4719 26.0442 10.7628C25.8987 10.9082 25.6078 11.0537 25.4624 11.1991L24.1533 10.1809C24.1533 10.1809 24.1533 10.1809 24.0078 10.1809C24.0078 10.1809 24.0078 10.181 24.0078 10.0355C24.2987 9.74459 24.7351 9.45368 25.026 9.30822C25.3169 9.01731 25.6078 8.87186 26.0442 8.7264C26.4805 8.58095 26.7714 8.43549 27.2078 8.29004C27.0624 8.43549 27.2078 8.43549 27.3533 8.29004Z" fill="#5E71B7"/>
<path d="M28.2328 9.1636H26.9237C26.9237 9.1636 26.7783 9.1636 26.7783 9.01815L26.6328 5.38178C26.6328 5.38178 26.6328 5.23633 26.7783 5.23633H28.0874C28.0874 5.23633 28.2328 5.23633 28.2328 5.38178V9.1636C28.3783 9.1636 28.3783 9.1636 28.2328 9.1636Z" fill="#5E71B7"/>
<path d="M29.2473 26.0365H27.6473C27.6473 26.0365 27.5018 26.0365 27.5018 25.891L27.2109 21.8183C27.2109 21.8183 27.2109 21.6729 27.3564 21.6729H28.9564C28.9564 21.6729 29.1019 21.6728 29.1019 21.8183L29.2473 26.0365C29.3928 26.0365 29.3928 26.0365 29.2473 26.0365Z" fill="#5E71B7"/>
</g>
<path d="M33.1743 14.6931V14.8386C33.1743 14.9841 33.1743 15.1295 33.1743 15.275C33.1743 15.5659 33.1743 15.7113 33.1743 16.0022C33.1743 16.1477 33.1743 16.2931 33.1743 16.5841C33.1743 17.3113 33.0288 18.0386 32.5925 18.6204C32.447 18.9113 32.1561 19.0568 32.0107 19.2022C31.4288 19.6386 30.7016 20.2204 30.1197 20.6568L28.9561 21.675C28.8106 21.675 28.6652 21.8204 28.6652 21.8204C28.5197 21.8204 28.2288 21.8204 28.0834 21.8204C27.9379 21.8204 27.7925 21.675 27.7925 21.675C26.1925 20.5113 24.7379 19.3477 23.1379 18.1841C22.7016 17.7477 22.1197 17.4568 21.6834 17.0204C21.3925 16.875 21.247 16.5841 21.247 16.2931C21.247 16.2931 21.247 16.1477 21.247 16.0022L21.1016 14.4022V14.2568V14.1113C21.1016 14.1113 21.1016 14.1113 21.1016 14.2568C21.1016 14.4022 21.247 14.5477 21.3925 14.6931C21.5379 14.8386 21.5379 14.8386 21.6834 14.9841C23.2834 16.2932 25.0288 17.6022 26.7743 18.7659C27.0652 19.0568 27.3561 19.2022 27.647 19.4932C27.7925 19.6386 27.9379 19.6386 28.0834 19.7841C28.3743 19.9295 28.5197 19.9295 28.8107 19.7841C28.9561 19.7841 28.9561 19.6386 28.9561 19.6386C29.9743 18.9113 31.1379 18.0386 32.1561 17.3113C32.7379 16.875 33.1743 16.2931 33.3197 15.5659C33.3197 15.4204 33.3197 15.275 33.3197 15.1295C33.1743 14.9841 33.1743 14.8386 33.1743 14.6931Z" fill="#EAEFF4"/>
<path d="M33.0355 10.0388V10.1842C33.0355 10.3297 33.0355 10.4752 33.0355 10.6206C33.0355 10.9115 33.0355 11.057 33.0355 11.3479C33.0355 11.4933 33.0355 11.6388 33.0355 11.7843C33.0355 12.9479 32.7446 13.8206 31.8719 14.4024C31.2901 14.8388 30.5628 15.4206 29.981 15.857L28.5264 16.8752C28.381 17.0206 28.0901 17.0206 27.9446 17.0206C27.7992 17.0206 27.6537 17.0206 27.6537 16.8752C27.5082 16.8752 27.5082 16.7297 27.3628 16.7297C26.0537 15.7115 24.5992 14.6933 23.2901 13.6752C22.7082 13.2388 22.1264 12.8024 21.5446 12.2206C21.3991 12.2206 21.3992 12.0752 21.2537 12.0752C20.9628 11.9297 20.8173 11.6388 20.8173 11.3479C20.8173 11.3479 20.8173 11.2024 20.8173 11.057L20.6719 9.60243V9.45698V9.31152C20.6719 9.31152 20.6719 9.31152 20.6719 9.45698C20.6719 9.60243 20.8173 9.74789 20.8173 9.89334C20.9628 10.0388 20.9628 10.0388 21.1082 10.1842C22.7082 11.4933 24.3082 12.657 26.0537 13.8206C26.4901 14.1115 26.781 14.4024 27.2173 14.6933C27.3628 14.8388 27.5082 14.8388 27.6537 14.9843C27.7992 14.9843 28.0901 14.9843 28.2355 14.9843C28.381 14.9843 28.381 14.8388 28.381 14.8388C29.3992 14.1115 30.2719 13.3843 31.2901 12.8024C31.4355 12.657 31.7264 12.5115 31.8719 12.3661C32.3082 11.9297 32.5992 11.3479 32.7446 10.7661C32.7446 10.6206 32.7446 10.4752 32.7446 10.4752V10.3297C33.0355 10.1843 33.0355 10.1843 33.0355 10.0388Z" fill="#EAEFF4"/>
<path d="M27.3611 7.56543H27.7974C28.3793 7.71088 28.9611 7.85634 29.5429 8.14725C29.9793 8.43816 30.2702 8.58361 30.5611 9.01998C30.7065 9.16543 30.852 9.45634 30.9974 9.74725C30.9974 10.0382 30.9974 10.3291 30.9974 10.4745C30.9974 10.62 30.9974 10.62 30.852 10.62C30.852 10.62 30.7065 10.7654 30.7065 10.62C30.5611 10.4745 30.4156 10.4745 30.4156 10.3291C29.9793 10.0382 29.3974 9.74725 28.9611 9.6018C28.6702 9.45634 28.2338 9.45634 27.9429 9.45634C27.2156 9.45634 26.6338 9.74725 26.052 10.0382C25.9065 10.1836 25.6156 10.3291 25.4702 10.4745L24.1611 9.45634C24.1611 9.45634 24.1611 9.45634 24.0156 9.45634C24.0156 9.45634 24.0156 9.45634 24.0156 9.31089C24.3065 9.01998 24.7429 8.72907 25.0338 8.58361C25.3247 8.2927 25.6156 8.14725 26.052 8.00179C26.4883 7.85634 26.7793 7.71088 27.2156 7.56543C27.0702 7.56543 27.2156 7.56543 27.3611 7.56543Z" fill="#EAEFF4"/>
<path d="M28.2328 8.29153H26.9237C26.9237 8.29153 26.7783 8.29154 26.7783 8.14608L26.6328 4.50972C26.6328 4.50972 26.6328 4.36426 26.7783 4.36426H28.0874C28.0874 4.36426 28.2328 4.36426 28.2328 4.50972V8.29153C28.3783 8.29153 28.3783 8.29153 28.2328 8.29153Z" fill="#EAEFF4"/>
<path d="M29.2473 25.1644H27.6473C27.6473 25.1644 27.5018 25.1644 27.5018 25.019L27.2109 20.9462C27.2109 20.9462 27.2109 20.8008 27.3564 20.8008H28.9564C28.9564 20.8008 29.1019 20.8008 29.1019 20.9462L29.2473 25.1644C29.3928 25.1644 29.3928 25.1644 29.2473 25.1644Z" fill="#EAEFF4"/>
<g opacity="0.54">
<path d="M85.1058 35.7829V35.9284C85.1058 36.0738 85.1058 36.2193 85.1058 36.3648C85.1058 36.6557 85.1058 36.8011 85.1058 37.092C85.1058 37.2375 85.1058 37.3829 85.1058 37.6738C85.1058 38.4011 84.9604 39.1284 84.524 39.7102C84.3785 40.0011 84.0876 40.1466 83.9422 40.292C83.3604 40.7284 82.6331 41.3102 82.0513 41.7466L80.7422 42.6193C80.5967 42.7648 80.4513 42.7648 80.3058 42.7648C80.1604 42.7648 79.8695 42.7648 79.724 42.7648C79.5786 42.7648 79.4331 42.6193 79.4331 42.6193C77.8331 41.4557 76.3785 40.292 74.7785 39.1284C74.3422 38.692 73.7604 38.4011 73.324 37.9648C73.0331 37.8193 72.8876 37.5284 72.8876 37.2375C72.8876 37.2375 72.8876 37.092 72.8876 36.9466L72.7422 35.3466V35.2011V35.0557C72.7422 35.0557 72.7422 35.0557 72.7422 35.2011C72.7422 35.3466 72.8876 35.492 73.0331 35.6375C73.1785 35.7829 73.1785 35.7829 73.324 35.9284C74.924 37.2375 76.6695 38.5466 78.4149 39.7102C78.7058 40.0011 78.9967 40.1466 79.2876 40.4375C79.4331 40.5829 79.5786 40.5829 79.724 40.7284C80.0149 40.8738 80.1604 40.8738 80.4513 40.7284C80.5967 40.7284 80.5967 40.5829 80.5967 40.5829C81.6149 39.8557 82.7785 38.9829 83.7967 38.2557C84.3785 37.8193 84.8149 37.2375 84.9604 36.5102C84.9604 36.3648 84.9604 36.2193 84.9604 36.0738C85.1058 35.9284 85.1058 35.9284 85.1058 35.7829Z" fill="#727BBA"/>
<path d="M84.809 31.1296V31.2751C84.809 31.4205 84.809 31.566 84.809 31.7114C84.809 32.0023 84.809 32.1478 84.809 32.4387C84.809 32.5842 84.809 32.7296 84.809 32.8751C84.809 34.0387 84.5181 34.9114 83.6453 35.4933C83.0635 35.9296 82.3362 36.5114 81.7544 36.9478L80.2999 37.966C80.1544 38.1114 79.8635 38.1114 79.7181 38.1114C79.5726 38.1114 79.4271 38.1114 79.4271 37.966C79.2817 37.966 79.2817 37.8205 79.1362 37.8205C77.8271 36.8023 76.3726 35.7842 75.0635 34.766C74.4817 34.3296 73.8999 33.8933 73.318 33.3114C73.1726 33.3114 73.1726 33.166 73.0271 33.166C72.7362 33.0205 72.5908 32.7296 72.5908 32.4387C72.5908 32.4387 72.5908 32.2933 72.5908 32.1478L72.4453 30.6933V30.5478V30.4023C72.4453 30.4023 72.4453 30.4023 72.4453 30.5478C72.4453 30.6933 72.5908 30.8387 72.5908 30.9842C72.7362 31.1296 72.7362 31.1296 72.8817 31.2751C74.4817 32.5842 76.0817 33.7478 77.8271 34.9114C78.2635 35.2023 78.5544 35.4933 78.9908 35.7842C79.1362 35.9296 79.2817 35.9296 79.4271 36.0751C79.5726 36.0751 79.8635 36.0751 80.009 36.0751C80.1544 36.0751 80.1544 35.9296 80.1544 35.9296C81.1726 35.2023 82.0453 34.4751 83.0635 33.8933C83.2089 33.7478 83.4999 33.6023 83.6453 33.4569C84.0817 33.0205 84.3726 32.4387 84.518 31.8569C84.518 31.7114 84.518 31.566 84.518 31.566V31.4205C84.809 31.2751 84.809 31.1296 84.809 31.1296Z" fill="#727BBA"/>
<path d="M79.1345 28.5098H79.5709C80.1527 28.6552 80.7345 28.8007 81.3163 29.0916C81.7527 29.3825 82.0436 29.5279 82.3345 29.9643C82.48 30.1098 82.6254 30.4007 82.7709 30.6916C82.7709 30.9825 82.7709 31.2734 82.7709 31.4189C82.7709 31.5643 82.7709 31.5643 82.6254 31.5643C82.48 31.5643 82.48 31.7098 82.48 31.5643C82.3345 31.4189 82.1891 31.4189 82.1891 31.2734C81.7527 30.9825 81.1709 30.6916 80.7345 30.5461C80.4436 30.4007 80.0073 30.4007 79.7163 30.4007C78.9891 30.4007 78.4072 30.6916 77.8254 30.9825C77.68 31.128 77.3891 31.2734 77.2436 31.4189L75.9345 30.4007C75.9345 30.4007 75.9345 30.4007 75.7891 30.4007C75.7891 30.4007 75.7891 30.4007 75.7891 30.2552C76.08 29.9643 76.5163 29.6734 76.8072 29.5279C77.0981 29.237 77.3891 29.0916 77.8254 28.9461C78.2618 28.8007 78.5527 28.6552 78.9891 28.5098C78.8436 28.5098 78.9891 28.5098 79.1345 28.5098Z" fill="#727BBA"/>
<path d="M80.0141 29.3833H78.705C78.705 29.3833 78.5595 29.3833 78.5595 29.2379L78.4141 25.6015C78.4141 25.6015 78.4141 25.4561 78.5595 25.4561H79.8686C79.8686 25.4561 80.0141 25.4561 80.0141 25.6015V29.3833C80.1595 29.3833 80.1595 29.2379 80.0141 29.3833Z" fill="#727BBA"/>
<path d="M81.0285 46.2562H79.4285C79.4285 46.2562 79.2831 46.2562 79.2831 46.1108L78.9922 42.038C78.9922 42.038 78.9922 41.8926 79.1376 41.8926H80.7376C80.7376 41.8926 80.8831 41.8926 80.8831 42.038L81.0285 46.2562C81.174 46.2562 81.174 46.1108 81.0285 46.2562Z" fill="#727BBA"/>
</g>
<path d="M85.098 34.9109V35.0563C85.098 35.2018 85.098 35.3472 85.098 35.4927C85.098 35.7836 85.098 35.9291 85.098 36.22C85.098 36.3654 85.098 36.5109 85.098 36.8018C85.098 37.5291 84.9526 38.2563 84.5162 38.8381C84.3707 39.1291 84.0798 39.2745 83.9344 39.42C83.3526 39.8563 82.6253 40.4381 82.0435 40.8745L80.7344 41.7472C80.5889 41.8927 80.4435 41.8927 80.298 41.8927C80.1526 41.8927 79.8617 41.8927 79.7162 41.8927C79.5707 41.8927 79.4253 41.7472 79.4253 41.7472C77.8253 40.5836 76.3707 39.42 74.7707 38.2563C74.3344 37.82 73.7525 37.5291 73.3162 37.0927C73.0253 36.9472 72.8798 36.6563 72.8798 36.3654C72.8798 36.3654 72.8798 36.22 72.8798 36.0745L72.7344 34.4745V34.3291V34.1836C72.7344 34.1836 72.7344 34.1836 72.7344 34.3291C72.7344 34.4745 72.8798 34.62 73.0253 34.7654C73.1707 34.9109 73.1707 34.9109 73.3162 35.0563C74.9162 36.3654 76.6616 37.6745 78.4071 38.8381C78.698 39.1291 78.9889 39.2745 79.2798 39.5654C79.4253 39.7109 79.5707 39.7109 79.7162 39.8563C80.0071 40.0018 80.1526 40.0018 80.4435 39.8563C80.5889 39.8563 80.5889 39.7109 80.5889 39.7109C81.6071 38.9836 82.7707 38.1109 83.7889 37.3836C84.3707 36.9472 84.8071 36.3654 84.9526 35.6381C84.9526 35.4927 84.9526 35.3472 84.9526 35.2018C85.098 35.2018 85.098 35.0563 85.098 34.9109Z" fill="#EAEFF4"/>
<path d="M84.8012 30.2556V30.401C84.8012 30.5465 84.8012 30.692 84.8012 30.8374C84.8012 31.1283 84.8012 31.2738 84.8012 31.5647C84.8012 31.7101 84.8012 31.8556 84.8012 32.001C84.8012 33.1647 84.5102 34.0374 83.6375 34.6192C83.0557 35.0556 82.3284 35.6374 81.7466 36.0738L80.2921 37.092C80.1466 37.2374 79.8557 37.2374 79.7102 37.2374C79.5648 37.2374 79.4193 37.2374 79.4193 37.092C79.2739 37.092 79.2739 36.9465 79.1284 36.9465C77.8193 35.9283 76.3648 34.9101 75.0557 33.892C74.4739 33.4556 73.892 33.0192 73.3102 32.4374C73.1648 32.4374 73.1648 32.292 73.0193 32.292C72.7284 32.1465 72.583 31.8556 72.583 31.5647C72.583 31.5647 72.583 31.4192 72.583 31.2738L72.4375 29.8192V29.6738V29.5283C72.4375 29.5283 72.4375 29.5283 72.4375 29.6738C72.4375 29.8192 72.583 29.9647 72.583 30.1101C72.7284 30.2556 72.7284 30.2556 72.8739 30.401C74.4739 31.7101 76.0739 32.8738 77.8193 34.0374C78.2557 34.3283 78.5466 34.6192 78.983 34.9101C79.1284 35.0556 79.2739 35.0556 79.4193 35.201C79.5648 35.201 79.8557 35.201 80.0011 35.201C80.1466 35.201 80.1466 35.0556 80.1466 35.0556C81.1648 34.3283 82.0375 33.601 83.0557 33.0192C83.2011 32.8738 83.4921 32.7283 83.6375 32.5829C84.0739 32.1465 84.3648 31.5647 84.5102 30.9829C84.5102 30.8374 84.5102 30.692 84.5102 30.692V30.5465C84.8011 30.401 84.8012 30.401 84.8012 30.2556Z" fill="#EAEFF4"/>
<path d="M79.1267 27.6377H79.5631C80.1449 27.7831 80.7267 27.9286 81.3085 28.2195C81.7449 28.5104 82.0358 28.6559 82.3267 29.0922C82.4722 29.2377 82.6176 29.5286 82.7631 29.8195C82.7631 30.1104 82.7631 30.4013 82.7631 30.5468C82.7631 30.6922 82.7631 30.6922 82.6176 30.6922C82.4722 30.6922 82.4722 30.8377 82.4722 30.6922C82.3267 30.5468 82.1813 30.5468 82.1813 30.4013C81.7449 30.1104 81.1631 29.8195 80.7267 29.6741C80.4358 29.5286 79.9994 29.5286 79.7085 29.5286C78.9813 29.5286 78.3994 29.8195 77.8176 30.1104C77.6722 30.2559 77.3813 30.4013 77.2358 30.5468L75.9267 29.5286C75.9267 29.5286 75.9267 29.5286 75.7812 29.5286C75.7812 29.5286 75.7812 29.5286 75.7812 29.3832C76.0722 29.0922 76.5085 28.8013 76.7994 28.6559C77.0903 28.365 77.3813 28.2195 77.8176 28.0741C78.254 27.9286 78.5449 27.7831 78.9813 27.6377C78.8358 27.7831 78.9812 27.7831 79.1267 27.6377Z" fill="#EAEFF4"/>
<path d="M80.0063 28.5113H78.6972C78.6972 28.5113 78.5517 28.5113 78.5517 28.3658L78.4062 24.7294C78.4062 24.7294 78.4063 24.584 78.5517 24.584H79.8608C79.8608 24.584 80.0063 24.584 80.0063 24.7294V28.5113C80.1517 28.5113 80.1517 28.5113 80.0063 28.5113Z" fill="#EAEFF4"/>
<path d="M81.0207 45.3841H79.4207C79.4207 45.3841 79.2753 45.3841 79.2753 45.2387L78.9844 41.166C78.9844 41.166 78.9844 41.0205 79.1298 41.0205H80.7298C80.7298 41.0205 80.8753 41.0205 80.8753 41.166L81.0207 45.3841C81.1662 45.3841 81.1662 45.3841 81.0207 45.3841Z" fill="#EAEFF4"/>
<g opacity="0.54">
<path d="M48.598 62.1081V62.2536C48.598 62.399 48.598 62.5445 48.598 62.6899C48.598 62.9809 48.598 63.1263 48.598 63.4172C48.598 63.5627 48.598 63.7081 48.598 63.999C48.598 64.7263 48.4526 65.4536 48.0162 66.0354C47.8708 66.3263 47.5798 66.4718 47.4344 66.6172C46.8526 67.0536 46.1253 67.6354 45.5435 68.0718L44.2344 68.9445C44.0889 69.09 43.9435 69.0899 43.798 69.0899C43.6526 69.0899 43.3617 69.0899 43.2162 69.0899C43.0707 69.0899 42.9253 68.9445 42.9253 68.9445C41.3253 67.7809 39.8707 66.6172 38.2707 65.4536C37.8344 65.0172 37.2526 64.7263 36.8162 64.29C36.5253 64.1445 36.3798 63.8536 36.3798 63.5627C36.3798 63.5627 36.3798 63.4172 36.3798 63.2718L36.2344 61.6718V61.5263V61.3809C36.2344 61.3809 36.2344 61.3809 36.2344 61.5263C36.2344 61.6718 36.3798 61.8172 36.5253 61.9627C36.6707 62.1081 36.6707 62.1081 36.8162 62.2536C38.4162 63.5627 40.1617 64.8718 41.9071 66.0354C42.198 66.3263 42.4889 66.4718 42.7798 66.7627C42.9253 66.9081 43.0707 66.9081 43.2162 67.0536C43.5071 67.199 43.6526 67.199 43.9435 67.0536C44.0889 67.0536 44.0889 66.9081 44.0889 66.9081C45.1071 66.1809 46.2708 65.3081 47.2889 64.5809C47.8708 64.1445 48.3071 63.5627 48.4526 62.8354C48.4526 62.69 48.4526 62.5445 48.4526 62.399C48.598 62.399 48.598 62.2536 48.598 62.1081Z" fill="#7880CE"/>
<path d="M48.3011 57.6003V57.7458C48.3011 57.8912 48.3011 58.0367 48.3011 58.1821C48.3011 58.4731 48.3011 58.6185 48.3011 58.9094C48.3011 59.0549 48.3011 59.2003 48.3011 59.3458C48.3011 60.5094 48.0102 61.3821 47.1375 61.964C46.5557 62.4003 45.8284 62.9821 45.2466 63.4185L43.7921 64.4367C43.6466 64.5821 43.3557 64.5821 43.2102 64.5821C43.0648 64.5821 42.9193 64.5821 42.9193 64.4367C42.7739 64.4367 42.7739 64.2912 42.6284 64.2912C41.3193 63.2731 39.8648 62.2549 38.5557 61.2367C37.9739 60.8003 37.392 60.364 36.8102 59.7821C36.6648 59.7821 36.6648 59.6367 36.5193 59.6367C36.2284 59.4912 36.083 59.2003 36.083 58.9094C36.083 58.9094 36.083 58.764 36.083 58.6185L35.9375 57.164V57.0185V56.873C35.9375 56.873 35.9375 56.8731 35.9375 57.0185C35.9375 57.164 36.083 57.3094 36.083 57.4549C36.2284 57.6003 36.2284 57.6003 36.3739 57.7458C37.9739 59.0549 39.5739 60.2185 41.3193 61.3821C41.7557 61.6731 42.0466 61.964 42.483 62.2549C42.6284 62.4003 42.7739 62.4003 42.9193 62.5458C43.0648 62.5458 43.3557 62.5458 43.5011 62.5458C43.6466 62.5458 43.6466 62.4003 43.6466 62.4003C44.6648 61.6731 45.5375 60.9458 46.5557 60.364C46.7011 60.2185 46.992 60.0731 47.1375 59.9276C47.5739 59.4912 47.8648 58.9094 48.0102 58.3276C48.0102 58.1821 48.0102 58.0367 48.0102 58.0367V57.8912C48.3012 57.6003 48.3011 57.6003 48.3011 57.6003Z" fill="#7880CE"/>
<path d="M42.7751 54.9805H43.2115C43.7933 55.1259 44.3751 55.2714 44.957 55.5623C45.3933 55.8532 45.6842 55.9987 45.9751 56.435C46.1206 56.5805 46.266 56.8714 46.4115 57.1623C46.4115 57.4532 46.4115 57.7441 46.4115 57.8896C46.4115 58.035 46.4115 58.035 46.2661 58.035C46.2661 58.035 46.1206 58.1805 46.1206 58.035C45.9751 57.8896 45.8297 57.8896 45.8297 57.7441C45.3933 57.4532 44.8115 57.1623 44.3751 57.0168C44.0842 56.8714 43.6479 56.8714 43.357 56.8714C42.6297 56.8714 42.0479 57.1623 41.4661 57.4532C41.3206 57.5986 41.0297 57.7441 40.8842 57.8896L39.5751 56.8714C39.5751 56.8714 39.5751 56.8714 39.4297 56.8714C39.4297 56.8714 39.4297 56.8714 39.4297 56.7259C39.7206 56.435 40.157 56.1441 40.4479 55.9986C40.7388 55.7077 41.0297 55.5623 41.4661 55.4168C41.9024 55.2714 42.1933 55.1259 42.6297 54.9805C42.3388 54.9805 42.4842 54.9805 42.7751 54.9805Z" fill="#7880CE"/>
<path d="M43.5062 55.854H42.1972C42.1972 55.854 42.0517 55.854 42.0517 55.7086L41.9062 52.0722C41.9062 52.0722 41.9062 51.9268 42.0517 51.9268H43.3608C43.3608 51.9268 43.5062 51.9268 43.5062 52.0722V55.854C43.6517 55.854 43.6517 55.7086 43.5062 55.854Z" fill="#7880CE"/>
<path d="M44.5207 72.5814H42.9207C42.9207 72.5814 42.7753 72.5814 42.7753 72.436L42.4844 68.3632C42.4844 68.3632 42.4844 68.2178 42.6298 68.2178H44.2298C44.2298 68.2178 44.3753 68.2178 44.3753 68.3632L44.5207 72.5814C44.6662 72.5814 44.6662 72.5814 44.5207 72.5814Z" fill="#7880CE"/>
</g>
<path d="M48.6058 61.3816V61.527C48.6058 61.6725 48.6058 61.8179 48.6058 61.9634C48.6058 62.2543 48.6058 62.3997 48.6058 62.6907C48.6058 62.8361 48.6058 62.9816 48.6058 63.2725C48.6058 63.9997 48.4604 64.727 48.024 65.3088C47.8786 65.5998 47.5877 65.7452 47.4422 65.8907C46.8604 66.327 46.1331 66.9088 45.5513 67.3452L44.2422 68.2179C44.0967 68.3634 43.9513 68.3634 43.8058 68.3634C43.6604 68.3634 43.3695 68.3634 43.224 68.3634C43.0786 68.3634 42.9331 68.2179 42.9331 68.2179C41.3331 67.0543 39.8786 65.8907 38.2786 64.727C37.8422 64.2907 37.2604 63.9998 36.824 63.5634C36.5331 63.4179 36.3877 63.127 36.3877 62.8361C36.3877 62.8361 36.3877 62.6907 36.3877 62.5452L36.2422 60.9452V60.7997V60.6543C36.2422 60.6543 36.2422 60.6543 36.2422 60.7997C36.2422 60.9452 36.3876 61.0907 36.5331 61.2361C36.6786 61.3816 36.6786 61.3816 36.824 61.527C38.424 62.8361 40.1695 64.1452 41.9149 65.3088C42.2058 65.5998 42.4967 65.7452 42.7876 66.0361C42.9331 66.1816 43.0786 66.1816 43.224 66.327C43.5149 66.4725 43.6604 66.4725 43.9513 66.327C44.0967 66.327 44.0967 66.1816 44.0967 66.1816C45.1149 65.4543 46.2786 64.5816 47.2968 63.8543C47.8786 63.4179 48.3149 62.8361 48.4604 62.1088C48.4604 61.9634 48.4604 61.8179 48.4604 61.6725C48.6058 61.6725 48.6058 61.527 48.6058 61.3816Z" fill="#EAEFF4"/>
<path d="M48.309 56.7263V56.8717C48.309 57.0172 48.309 57.1627 48.309 57.3081C48.309 57.599 48.309 57.7445 48.309 58.0354C48.309 58.1808 48.309 58.3263 48.309 58.4718C48.309 59.6354 48.018 60.5081 47.1453 61.0899C46.5635 61.5263 45.8362 62.1081 45.2544 62.5445L43.7999 63.5627C43.6544 63.7081 43.3635 63.7081 43.218 63.7081C43.0726 63.7081 42.9271 63.7081 42.9271 63.5627C42.7817 63.5627 42.7817 63.4172 42.6362 63.4172C41.3271 62.399 39.8726 61.3808 38.5635 60.3627C37.9817 59.9263 37.3999 59.4899 36.818 58.9081C36.6726 58.9081 36.6726 58.7627 36.5271 58.7627C36.2362 58.6172 36.0908 58.3263 36.0908 58.0354C36.0908 58.0354 36.0908 57.8899 36.0908 57.7445L35.9453 56.2899V56.1445V55.999C35.9453 55.999 35.9453 55.999 35.9453 56.1445C35.9453 56.2899 36.0908 56.4354 36.0908 56.5808C36.2362 56.7263 36.2362 56.7263 36.3817 56.8717C37.9817 58.1808 39.5817 59.3445 41.3271 60.5081C41.7635 60.799 42.0544 61.0899 42.4908 61.3809C42.6362 61.5263 42.7817 61.5263 42.9271 61.6718C43.0726 61.6718 43.3635 61.6718 43.509 61.6718C43.6544 61.6718 43.6544 61.5263 43.6544 61.5263C44.6726 60.799 45.5453 60.0718 46.5635 59.4899C46.709 59.3445 46.9999 59.199 47.1453 59.0536C47.5817 58.6172 47.8726 58.0354 48.0181 57.4536C48.0181 57.3081 48.0181 57.1627 48.0181 57.1627V57.0172C48.309 56.8718 48.309 56.7263 48.309 56.7263Z" fill="#EAEFF4"/>
<path d="M42.783 54.1084H43.2193C43.8011 54.2539 44.383 54.3993 44.9648 54.6902C45.4011 54.9811 45.6921 55.1266 45.983 55.5629C46.1284 55.7084 46.2739 55.9993 46.4193 56.2902C46.4193 56.5811 46.4193 56.872 46.4193 57.0175C46.4193 57.1629 46.4193 57.1629 46.2739 57.1629C46.2739 57.1629 46.1284 57.3084 46.1284 57.1629C45.983 57.0175 45.8375 57.0175 45.8375 56.872C45.4011 56.5811 44.8193 56.2902 44.383 56.1448C44.0921 55.9993 43.6557 55.9993 43.3648 55.9993C42.6375 55.9993 42.0557 56.2902 41.4739 56.5811C41.3284 56.7266 41.0375 56.872 40.892 57.0175L39.583 55.9993C39.583 55.9993 39.583 55.9993 39.4375 55.9993C39.4375 55.9993 39.4375 55.9993 39.4375 55.8538C39.7284 55.5629 40.1648 55.272 40.4557 55.1266C40.7466 54.8357 41.0375 54.6902 41.4739 54.5448C41.9102 54.3993 42.2011 54.2539 42.6375 54.1084C42.3466 54.1084 42.492 54.1084 42.783 54.1084Z" fill="#EAEFF4"/>
<path d="M43.5062 54.982H42.1972C42.1972 54.982 42.0517 54.982 42.0517 54.8365L41.9062 51.2002C41.9062 51.2002 41.9062 51.0547 42.0517 51.0547H43.3608C43.3608 51.0547 43.5062 51.0547 43.5062 51.2002V54.982C43.6517 54.982 43.6517 54.982 43.5062 54.982Z" fill="#EAEFF4"/>
<path d="M44.5286 71.8549H42.9286C42.9286 71.8549 42.7831 71.8549 42.7831 71.7094L42.4922 67.6367C42.4922 67.6367 42.4922 67.4912 42.6376 67.4912H44.2376C44.2376 67.4912 44.3831 67.4912 44.3831 67.6367L44.5286 71.8549C44.674 71.8549 44.674 71.7094 44.5286 71.8549Z" fill="#EAEFF4"/>
</svg>
