<svg width="100" height="100" viewBox="0 0 100 100" fill="none" xmlns="http://www.w3.org/2000/svg">
<path fill-rule="evenodd" clip-rule="evenodd" d="M90 50C90 72.0914 72.0914 90 50 90C27.9086 90 10 72.0914 10 50C10 27.9086 27.9086 10 50 10C72.0914 10 90 27.9086 90 50ZM55 30C55 32.7614 52.7614 35 50 35C47.2386 35 45 32.7614 45 30C45 27.2386 47.2386 25 50 25C52.7614 25 55 27.2386 55 30ZM45 45C42.9289 45 41.25 46.6789 41.25 48.75C41.25 50.8211 42.9289 52.5 45 52.5H46.2669C47.0666 52.5 47.6606 53.2405 47.4872 54.0212L45.1914 64.3519C43.9771 69.8164 48.1353 75 53.7331 75H55C57.0711 75 58.75 73.3211 58.75 71.25C58.75 69.1789 57.0711 67.5 55 67.5H53.7331C52.9334 67.5 52.3394 66.7595 52.5128 65.9788L54.8086 55.6481C56.0229 50.1836 51.8647 45 46.2669 45H45Z" fill="#B9BEC2"/>
</svg>
