<svg width="18" height="18" viewBox="0 0 18 18" fill="none" xmlns="http://www.w3.org/2000/svg">
<path d="M7.3125 7.3125V6.9375C7.3125 6.31618 7.8162 5.8125 8.4375 5.8125H9.5625C10.1838 5.8125 10.6875 6.31618 10.6875 6.9375V7.5189C10.6875 7.9635 10.4257 8.3664 10.0194 8.54692L9.6681 8.70308C9.26183 8.8836 9 9.2865 9 9.7311V9.9375M15.9375 9C15.9375 12.8315 12.8315 15.9375 9 15.9375C5.16853 15.9375 2.0625 12.8315 2.0625 9C2.0625 5.16853 5.16853 2.0625 9 2.0625C12.8315 2.0625 15.9375 5.16853 15.9375 9Z" stroke="#868F97" stroke-width="1.125" stroke-linecap="round" stroke-linejoin="round"/>
<path d="M9 12.75C9.41421 12.75 9.75 12.4142 9.75 12C9.75 11.5858 9.41421 11.25 9 11.25C8.58579 11.25 8.25 11.5858 8.25 12C8.25 12.4142 8.58579 12.75 9 12.75Z" fill="#868F97"/>
</svg>
