<svg width="20" height="20" viewBox="0 0 20 20" fill="none" xmlns="http://www.w3.org/2000/svg">
<g clip-path="url(#clip0_8042_311)">
<mask id="mask0_8042_311" style="mask-type:luminance" maskUnits="userSpaceOnUse" x="0" y="0" width="20" height="20">
<path d="M20 0H0V20H20V0Z" fill="white"/>
</mask>
<g mask="url(#mask0_8042_311)">
<path d="M10 20C15.5229 20 20 15.5229 20 10C20 4.47715 15.5229 0 10 0C4.47715 0 0 4.47715 0 10C0 15.5229 4.47715 20 10 20Z" fill="#1F1F20"/>
<path d="M12.5627 13.8555H7.31254C6.58764 13.8555 6 13.2678 6 12.5429V9.48031C6 8.75539 6.58764 8.16776 7.31254 8.16776H10.8126C11.0543 8.16776 11.2502 7.97187 11.2502 7.73023V7.12359C11.2654 6.42936 10.757 5.83436 10.0689 5.74104C9.69867 5.70383 9.33005 5.82549 9.05468 6.07579C8.77938 6.32609 8.62321 6.68149 8.62509 7.05358C8.62509 7.29522 8.42919 7.49109 8.18758 7.49109C7.94594 7.49109 7.75005 7.29522 7.75005 7.05358C7.74706 6.43427 8.00674 5.84273 8.46463 5.42571C8.9225 5.00869 9.53566 4.80532 10.152 4.86601C11.288 5.00423 12.138 5.97496 12.1252 7.11922V7.73023C12.1252 8.45514 11.5376 9.04277 10.8126 9.04277H7.31254C7.0709 9.04277 6.87501 9.23867 6.87501 9.48031V12.5429C6.87501 12.7845 7.0709 12.9803 7.31254 12.9803H12.5627C12.8044 12.9803 13.0003 12.7845 13.0003 12.5429V8.60527C13.0003 8.36364 13.1961 8.16776 13.4377 8.16776C13.6794 8.16776 13.8752 8.36364 13.8752 8.60527V12.5429C13.8752 13.2678 13.2876 13.8555 12.5627 13.8555Z" fill="#B3B3B3"/>
</g>
</g>
<defs>
<clipPath id="clip0_8042_311">
<rect width="20" height="20" fill="white"/>
</clipPath>
</defs>
</svg>
