<svg width="366" height="161" viewBox="0 0 366 161" fill="none" xmlns="http://www.w3.org/2000/svg">
<path opacity="0.34" d="M145 82C146.105 82 147 81.1046 147 80C147 78.8954 146.105 78 145 78C143.895 78 143 78.8954 143 80C143 81.1046 143.895 82 145 82Z" fill="#25273D"/>
<path opacity="0.34" d="M219 82C220.105 82 221 81.1046 221 80C221 78.8954 220.105 78 219 78C217.895 78 217 78.8954 217 80C217 81.1046 217.895 82 219 82Z" fill="#25273D"/>
<path d="M181.961 83C183.618 83 184.961 81.6569 184.961 80C184.961 78.3431 183.618 77 181.961 77C180.304 77 178.961 78.3431 178.961 80C178.961 81.6569 180.304 83 181.961 83Z" fill="#25273D"/>
<path opacity="0.5" d="M162.961 84C165.17 84 166.961 82.2091 166.961 80C166.961 77.7909 165.17 76 162.961 76C160.752 76 158.961 77.7909 158.961 80C158.961 82.2091 160.752 84 162.961 84Z" fill="#25273D"/>
<path opacity="0.5" d="M200.961 84C203.17 84 204.961 82.2091 204.961 80C204.961 77.7909 203.17 76 200.961 76C198.752 76 196.961 77.7909 196.961 80C196.961 82.2091 198.752 84 200.961 84Z" fill="#25273D"/>
<path d="M31.1831 130.803C31.1831 127.933 28.8563 125.606 25.9861 125.606C23.1158 125.606 20.7891 127.933 20.7891 130.803V141.198C20.7891 144.069 23.1158 146.395 25.9861 146.395C28.8563 146.395 31.1831 144.069 31.1831 141.198V130.803Z" fill="#5C5FFE" fill-opacity="0.6"/>
<path d="M102.214 130.803C102.214 127.933 99.8875 125.606 97.0173 125.606C94.1471 125.606 91.8203 127.933 91.8203 130.803V141.198C91.8203 144.069 94.1471 146.395 97.0173 146.395C99.8875 146.395 102.214 144.069 102.214 141.198V130.803Z" fill="#5C5FFE" fill-opacity="0.6"/>
<path d="M113 13H10C4.47715 13 0 17.4772 0 23V126C0 131.523 4.47715 136 10 136H113C118.523 136 123 131.523 123 126V23C123 17.4772 118.523 13 113 13Z" fill="#2F3037"/>
<path d="M110.071 19.9287H12.9297C9.61598 19.9287 6.92969 22.615 6.92969 25.9287V123.07C6.92969 126.383 9.61598 129.07 12.9297 129.07H110.071C113.384 129.07 116.071 126.383 116.071 123.07V25.9287C116.071 22.615 113.384 19.9287 110.071 19.9287Z" fill="#242424"/>
<path opacity="0.5" d="M19.5938 30.2197C19.5938 29.1152 18.6983 28.2197 17.5938 28.2197C16.4892 28.2197 15.5938 29.1152 15.5938 30.2197C15.5938 31.3243 16.4892 32.2197 17.5938 32.2197C18.6983 32.2197 19.5938 31.3243 19.5938 30.2197Z" fill="#878BFC"/>
<path opacity="0.5" d="M26.5938 30.2197C26.5938 29.1152 25.6983 28.2197 24.5938 28.2197C23.4892 28.2197 22.5938 29.1152 22.5938 30.2197C22.5938 31.3243 23.4892 32.2197 24.5938 32.2197C25.6983 32.2197 26.5938 31.3243 26.5938 30.2197Z" fill="#878BFC"/>
<path opacity="0.5" d="M33.5938 30.2197C33.5938 29.1152 32.6983 28.2197 31.5938 28.2197C30.4892 28.2197 29.5938 29.1152 29.5938 30.2197C29.5938 31.3243 30.4892 32.2197 31.5938 32.2197C32.6983 32.2197 33.5938 31.3243 33.5938 30.2197Z" fill="#878BFC"/>
<g filter="url(#filter0_d_8049_1026)">
<path fill-rule="evenodd" clip-rule="evenodd" d="M61.4991 56.3099C49.5391 56.3099 39.8441 66.0049 39.8441 77.9649C39.8454 83.7077 42.1273 89.215 46.1881 93.2758C50.2489 97.3366 55.7562 99.6186 61.4991 99.6199C67.2419 99.6186 72.7492 97.3366 76.81 93.2758C80.8708 89.215 83.1527 83.7077 83.1541 77.9649C83.1541 66.0049 73.4591 56.3099 61.4991 56.3099ZM32.9141 77.9649C32.9141 62.1779 45.7121 49.3799 61.4991 49.3799C77.2861 49.3799 90.0841 62.1779 90.0841 77.9649C90.0841 93.7519 77.2861 106.549 61.4991 106.549C45.7121 106.549 32.9141 93.7509 32.9141 77.9649Z" fill="#5C5FFE" fill-opacity="0.6"/>
</g>
<path opacity="0.5" fill-rule="evenodd" clip-rule="evenodd" d="M73.134 68.7773C73.2951 68.6166 73.423 68.4257 73.5102 68.2155C73.5975 68.0053 73.6424 67.7799 73.6424 67.5523C73.6424 67.3247 73.5975 67.0994 73.5102 66.8891C73.423 66.6789 73.2951 66.488 73.134 66.3273C72.458 65.6513 71.361 65.6513 70.684 66.3273L61.497 75.5153L52.31 66.3283C51.633 65.6513 50.536 65.6513 49.86 66.3283C49.6988 66.489 49.571 66.6799 49.4837 66.8902C49.3965 67.1004 49.3516 67.3257 49.3516 67.5533C49.3516 67.7809 49.3965 68.0063 49.4837 68.2165C49.571 68.4267 49.6988 68.6176 49.86 68.7783L59.047 77.9653L49.859 87.1533C49.183 87.8293 49.183 88.9263 49.859 89.6033C50.535 90.2803 51.633 90.2793 52.309 89.6033L61.497 80.4153L70.684 89.6033C71.361 90.2793 72.458 90.2793 73.134 89.6033C73.2951 89.4426 73.423 89.2517 73.5102 89.0415C73.5975 88.8313 73.6424 88.6059 73.6424 88.3783C73.6424 88.1507 73.5975 87.9254 73.5102 87.7152C73.423 87.5049 73.2951 87.314 73.134 87.1533L63.947 77.9653L73.134 68.7773Z" fill="#878BFC"/>
<path d="M61.5029 82.2958C63.8948 82.2958 65.8339 80.3567 65.8339 77.9648C65.8339 75.5728 63.8948 73.6338 61.5029 73.6338C59.1109 73.6338 57.1719 75.5728 57.1719 77.9648C57.1719 80.3567 59.1109 82.2958 61.5029 82.2958Z" fill="#5C5FFE" fill-opacity="0.6"/>
<path d="M119.539 40.7189C119.539 38.8052 117.988 37.2539 116.074 37.2539C114.161 37.2539 112.609 38.8052 112.609 40.7189V49.3809C112.609 51.2946 114.161 52.8459 116.074 52.8459C117.988 52.8459 119.539 51.2946 119.539 49.3809V40.7189Z" fill="#5C5FFE" fill-opacity="0.6"/>
<path d="M119.539 103.085C119.539 101.171 117.988 99.6201 116.074 99.6201C114.161 99.6201 112.609 101.171 112.609 103.085V111.747C112.609 113.661 114.161 115.212 116.074 115.212C117.988 115.212 119.539 113.661 119.539 111.747V103.085Z" fill="#5C5FFE" fill-opacity="0.6"/>
<rect x="277.055" y="3" width="39.3077" height="13.7265" rx="4" fill="#5C5FFE" fill-opacity="0.6"/>
<g filter="url(#filter1_d_8049_1026)">
<path d="M343.821 12.9834H248.983C243.469 12.9834 239 17.4529 239 22.9663V139.018C239 144.531 243.469 149.001 248.983 149.001H343.821C349.334 149.001 353.803 144.531 353.803 139.018V22.9663C353.803 17.4529 349.334 12.9834 343.821 12.9834Z" fill="#242424"/>
</g>
<path d="M337.211 41H255.789C253.144 41 251 41.8187 251 42.8286V47.1714C251 48.1813 253.144 49 255.789 49H337.211C339.856 49 342 48.1813 342 47.1714V42.8286C342 41.8187 339.856 41 337.211 41Z" fill="#2F3037"/>
<path d="M337.211 55H255.789C253.144 55 251 55.921 251 57.0571V61.9429C251 63.079 253.144 64 255.789 64H337.211C339.856 64 342 63.079 342 61.9429V57.0571C342 55.921 339.856 55 337.211 55Z" fill="#2F3037"/>
<path d="M337.211 71H255.789C253.144 71 251 71.8187 251 72.8286V77.1714C251 78.1813 253.144 79 255.789 79H337.211C339.856 79 342 78.1813 342 77.1714V72.8286C342 71.8187 339.856 71 337.211 71Z" fill="#2F3037"/>
<path d="M337.211 87H255.789C253.144 87 251 87.8187 251 88.8286V93.1714C251 94.1813 253.144 95 255.789 95H337.211C339.856 95 342 94.1813 342 93.1714V88.8286C342 87.8187 339.856 87 337.211 87Z" fill="#2F3037"/>
<path fill-rule="evenodd" clip-rule="evenodd" d="M330.277 119.322C330.928 119.835 331.04 120.778 330.527 121.428L325.294 128.07C325.018 128.421 324.6 128.63 324.154 128.641C323.707 128.652 323.279 128.464 322.986 128.128L320.37 125.128C319.825 124.503 319.89 123.556 320.514 123.011C321.138 122.467 322.086 122.532 322.631 123.156L324.058 124.792L328.171 119.572C328.684 118.921 329.627 118.809 330.277 119.322Z" fill="url(#paint0_radial_8049_1026)" fill-opacity="0.6"/>
<path d="M287.797 11.1115V5.66624H289.113V7.96876H289.185L290.985 5.66624H292.535L290.605 8.09639L292.569 11.1115H290.995L289.639 8.97113L289.113 9.63583V11.1115H287.797Z" fill="white"/>
<path d="M294.343 5.66624H295.813L296.964 7.94483H297.012L298.163 5.66624H299.634L297.642 9.29285V11.1115H296.334V9.29285L294.343 5.66624Z" fill="white"/>
<path d="M306.33 7.63907H305C304.982 7.50259 304.946 7.3794 304.891 7.2695C304.836 7.1596 304.764 7.06566 304.673 6.98767C304.583 6.90968 304.476 6.8503 304.351 6.80953C304.229 6.76699 304.094 6.74572 303.945 6.74572C303.681 6.74572 303.453 6.81041 303.261 6.93981C303.072 7.0692 302.925 7.25621 302.823 7.50082C302.722 7.74542 302.671 8.04144 302.671 8.38885C302.671 8.75045 302.722 9.05355 302.825 9.29816C302.93 9.541 303.076 9.72446 303.264 9.84853C303.454 9.97084 303.678 10.032 303.937 10.032C304.082 10.032 304.214 10.0134 304.333 9.97616C304.453 9.93893 304.559 9.88487 304.649 9.81397C304.741 9.7413 304.817 9.65356 304.875 9.55075C304.935 9.44617 304.977 9.3283 305 9.19713L306.33 9.20511C306.307 9.44617 306.237 9.68369 306.12 9.91766C306.004 10.1516 305.846 10.3652 305.644 10.5584C305.442 10.7499 305.195 10.9023 304.904 11.0157C304.616 11.1292 304.284 11.1859 303.91 11.1859C303.417 11.1859 302.976 11.0778 302.586 10.8615C302.198 10.6435 301.891 10.3262 301.666 9.90969C301.441 9.49314 301.328 8.9862 301.328 8.38885C301.328 7.78974 301.443 7.28191 301.671 6.86536C301.9 6.44882 302.209 6.13242 302.599 5.91617C302.989 5.69992 303.426 5.5918 303.91 5.5918C304.24 5.5918 304.545 5.63788 304.825 5.73005C305.105 5.82045 305.351 5.95339 305.564 6.12887C305.777 6.30258 305.949 6.51617 306.082 6.76965C306.215 7.02312 306.298 7.31293 306.33 7.63907Z" fill="white"/>
<rect opacity="0.7" x="252" y="112" width="35" height="24" rx="4" fill="#B54949" fill-opacity="0.17"/>
<rect opacity="0.7" x="308" y="112" width="35" height="24" rx="4" fill="#33CC55" fill-opacity="0.12"/>
<path d="M267.28 118.818L268.95 121.781H269.03L270.72 118.818H273.803L270.76 123.909L273.922 129H270.76L269.03 125.977H268.95L267.22 129H264.078L267.2 123.909L264.178 118.818H267.28Z" fill="url(#paint1_radial_8049_1026)" fill-opacity="0.6"/>
<defs>
<filter id="filter0_d_8049_1026" x="24.9141" y="42.3799" width="73.1719" height="73.1689" filterUnits="userSpaceOnUse" color-interpolation-filters="sRGB">
<feFlood flood-opacity="0" result="BackgroundImageFix"/>
<feColorMatrix in="SourceAlpha" type="matrix" values="0 0 0 0 0 0 0 0 0 0 0 0 0 0 0 0 0 0 127 0" result="hardAlpha"/>
<feOffset dy="1"/>
<feGaussianBlur stdDeviation="4"/>
<feColorMatrix type="matrix" values="0 0 0 0 0.145098 0 0 0 0 0.152941 0 0 0 0 0.239216 0 0 0 0.1 0"/>
<feBlend mode="normal" in2="BackgroundImageFix" result="effect1_dropShadow_8049_1026"/>
<feBlend mode="normal" in="SourceGraphic" in2="effect1_dropShadow_8049_1026" result="shape"/>
</filter>
<filter id="filter1_d_8049_1026" x="227" y="0.983398" width="138.805" height="160.018" filterUnits="userSpaceOnUse" color-interpolation-filters="sRGB">
<feFlood flood-opacity="0" result="BackgroundImageFix"/>
<feColorMatrix in="SourceAlpha" type="matrix" values="0 0 0 0 0 0 0 0 0 0 0 0 0 0 0 0 0 0 127 0" result="hardAlpha"/>
<feOffset/>
<feGaussianBlur stdDeviation="6"/>
<feComposite in2="hardAlpha" operator="out"/>
<feColorMatrix type="matrix" values="0 0 0 0 0 0 0 0 0 0 0 0 0 0 0 0 0 0 0.05 0"/>
<feBlend mode="normal" in2="BackgroundImageFix" result="effect1_dropShadow_8049_1026"/>
<feBlend mode="normal" in="SourceGraphic" in2="effect1_dropShadow_8049_1026" result="shape"/>
</filter>
<radialGradient id="paint0_radial_8049_1026" cx="0" cy="0" r="1" gradientUnits="userSpaceOnUse" gradientTransform="translate(322.372 121.976) rotate(36.1759) scale(7.29276 21.6429)">
<stop stop-color="#FFCCEB"/>
<stop offset="0.474" stop-color="#BFC6FF"/>
<stop offset="1" stop-color="#96E4D2"/>
</radialGradient>
<radialGradient id="paint1_radial_8049_1026" cx="0" cy="0" r="1" gradientUnits="userSpaceOnUse" gradientTransform="translate(266.231 121.961) rotate(40.4) scale(7.01376 21.5619)">
<stop stop-color="#FFCCEB"/>
<stop offset="0.474" stop-color="#BFC6FF"/>
<stop offset="1" stop-color="#96E4D2"/>
</radialGradient>
</defs>
</svg>
