<svg width="20" height="20" viewBox="0 0 20 20" fill="none" xmlns="http://www.w3.org/2000/svg">
<g clip-path="url(#clip0_8042_318)">
<path d="M10 20C15.5229 20 20 15.5229 20 10C20 4.47715 15.5229 0 10 0C4.47715 0 0 4.47715 0 10C0 15.5229 4.47715 20 10 20Z" fill="#211E1B"/>
<path d="M10.654 9.3907L10.6541 5.85943C10.6541 5.5919 10.4372 5.375 10.1696 5.375C9.90208 5.375 9.68527 5.59191 9.68527 5.85943V9.39043L6.2813 9.39037C6.01953 9.39037 5.79688 9.57334 5.79688 9.81092C5.79688 10.0485 6.01953 10.2315 6.2813 10.2315H9.68497L9.68488 13.8905C9.68488 14.1581 9.90178 14.375 10.1693 14.375C10.4368 14.375 10.6537 14.1581 10.6537 13.8905V10.2317L14.3124 10.2318C14.5743 10.2318 14.7969 10.0488 14.7969 9.81123C14.7969 9.57362 14.5743 9.3907 14.3124 9.3907H10.654Z" fill="#958D7E" stroke="#958D7E" stroke-width="0.6"/>
</g>
<defs>
<clipPath id="clip0_8042_318">
<rect width="20" height="20" fill="white"/>
</clipPath>
</defs>
</svg>
