<?xml version="1.0" encoding="UTF-8"?><svg id="a" xmlns="http://www.w3.org/2000/svg" viewBox="0 0 106.058 19.417"><path d="M7.748,19.012L0,0H5.105l3.348,9.052c1.262,3.425,1.797,5.265,2.128,6.478h.054c.297-1.099,.561-1.903,2.344-6.822L16.215,0h4.936l-7.883,19.012H7.748Z" style="fill:#1c1c23;"/><path d="M27.255,14.697l-1.659,4.314h-4.745L28.507,0h5.916l8.05,19.012h-4.99l-1.767-4.314h-8.461Zm7.172-3.698c-1.77-4.356-2.631-6.578-3.087-8.03h-.027c-.425,1.422-1.435,4.313-2.863,8.03h5.978Z" style="fill:#1c1c23;"/><path d="M46.501,0h4.61V15.314h10.644l-.605,3.697h-14.648V0Z" style="fill:#1c1c23;"/><path d="M70.135,0V10.749c0,4.043,2.121,5.064,4.457,5.064,2.487,0,4.15-1.07,4.15-5.064V0h4.613V10.898c0,5.77-3.242,8.519-8.892,8.519-5.466,0-8.942-2.514-8.942-8.414V0h4.613Z" style="fill:#1c1c23;"/><path d="M104.87,10.99h-10.609v4.327h11.797l-.531,3.694h-15.88V0h15.797V3.695h-11.183v3.601h10.609v3.694Z" style="fill:#1c1c23;"/></svg>