<svg width="307" height="82" viewBox="0 0 307 82" fill="none" xmlns="http://www.w3.org/2000/svg">
<g clip-path="url(#clip0_8049_324)">
<path d="M0.234667 31.702C0.101667 19.741 -0.282333 15.607 2.82067 10.656C7.84167 2.64503 13.3137 1.06503 17.1947 0.47303C22.3687 -0.31797 25.8837 0.12203 32.4637 0.12203H51.4557C62.7357 0.12203 55.3927 0.12203 59.9327 0.12203C69.9487 -0.53597 76.7807 6.37703 76.7807 6.37703C82.7497 12.961 82.7497 19.94 82.7497 19.94V50.232C82.7497 61.285 82.5517 61.879 82.5517 61.879C82.5517 61.879 82.5517 70.57 74.7907 77.219C69.2137 81.998 63.8297 82.244 51.4557 81.893H32.4637C22.3067 81.651 18.4587 82.902 11.0917 79.149C4.00967 75.54 1.21267 70.391 0.234667 62.206C-0.293333 57.789 0.234667 61.364 0.234667 50.311V31.702Z" fill="url(#paint0_linear_8049_324)"/>
<path d="M32.7734 24.6017L29.9224 26.5277C29.6974 26.7537 29.6274 26.8937 29.9224 27.1017L30.2004 27.3277L34.0034 29.9847C34.0034 29.9847 37.7794 27.9337 38.5854 27.5877C40.0054 26.9507 41.5434 26.6247 43.0984 26.6317C44.1524 26.7027 45.1984 26.8607 46.2254 27.1057C47.5374 27.4837 48.7794 28.0697 49.9064 28.8427L50.9774 29.5547C51.0174 29.5947 51.0644 29.6267 51.1164 29.6497C51.1694 29.6727 51.2254 29.6837 51.2824 29.6837C51.3394 29.6837 51.3964 29.6717 51.4494 29.6497C51.5014 29.6267 51.5474 29.5947 51.5874 29.5547C51.6314 29.5227 51.6664 29.4817 51.6914 29.4337C51.9314 29.0607 52.1224 28.6577 52.2574 28.2357C52.3474 27.9007 52.3944 27.5557 52.3964 27.2087C52.3984 26.7137 52.2974 26.2227 52.1004 25.7687C51.9044 25.3147 51.6164 24.9057 51.2544 24.5687L50.5234 23.9277C49.6434 23.0797 48.6334 22.3787 47.5324 21.8517L46.6944 21.4327C45.2224 20.8757 43.6614 20.5937 42.0884 20.5997C40.3704 20.6617 37.4804 21.4337 32.7744 24.6037L32.7734 24.6017Z" fill="#FCFCFC"/>
<g opacity="0.9">
<path d="M21.5898 33.5165C21.5638 33.8095 21.5638 34.1035 21.5898 34.3965C21.7308 35.1005 22.1228 35.7305 22.6938 36.1725L23.7298 37.0025C29.1488 41.0485 34.7508 44.9205 40.2868 48.7445L41.1238 49.2245C41.4878 49.4155 41.8858 49.5355 42.2948 49.5755H42.4278C43.0878 49.5755 43.7288 49.3595 44.2518 48.9625L49.3868 45.3765C51.0598 44.1315 52.8648 42.9025 54.5208 41.6125C55.0668 41.1795 55.5738 40.7025 56.0378 40.1845C57.3178 38.6985 58.1198 36.8665 58.3408 34.9235C58.3408 34.2925 58.4218 33.5785 58.4218 32.8315V29.0975C58.4298 29.0255 58.4298 28.9525 58.4218 28.8815V28.9485C58.4078 29.6865 58.2838 30.4195 58.0548 31.1225C57.3978 33.1225 56.1198 34.8645 54.4038 36.1005C51.1578 38.4395 47.8978 40.7805 44.5698 43.0375L43.8108 43.4695C43.4428 43.6555 43.0358 43.7515 42.6238 43.7515H42.4238C42.2208 43.7435 42.0198 43.7125 41.8248 43.6575C41.6718 43.6175 41.5248 43.5585 41.3868 43.4825L40.1998 42.7815C36.2178 40.0705 32.2728 37.3045 28.3658 34.4825L23.2308 30.6245L22.4778 29.9235C22.1468 29.5885 21.9268 29.1625 21.8458 28.7005V28.5215C21.7928 28.5215 21.5878 33.5185 21.5878 33.5185L21.5898 33.5165Z" fill="url(#paint1_radial_8049_324)"/>
</g>
<path d="M58.067 43.8505C58.126 43.6755 58.207 43.4245 58.292 43.1775V46.5075C58.29 47.1415 58.241 47.7745 58.143 48.4015C57.817 50.5805 56.712 52.5695 55.031 54.0075L53.514 55.2495C51.778 56.5405 49.992 57.7835 48.187 59.0265L44.314 61.6935L43.972 61.8885C43.539 62.1645 43.035 62.3095 42.521 62.3065C42.218 62.3095 41.918 62.2575 41.634 62.1535C41.225 62.0155 40.839 61.8175 40.489 61.5675L28.786 53.4565L23.002 49.1765C22.668 48.9425 22.386 48.6425 22.173 48.2965C21.961 47.9555 21.82 47.5735 21.762 47.1765C21.746 46.9425 21.746 46.7085 21.762 46.4745V42.5225C21.829 42.6735 21.913 42.8175 22.011 42.9505C22.284 43.2735 22.599 43.5585 22.949 43.7975L26.742 46.6155C30.379 49.2855 34.072 51.8765 37.82 54.3875L40.245 56.0455L41.281 56.5925H41.302C41.726 56.7575 42.183 56.8215 42.636 56.7805C43.088 56.7405 43.525 56.5965 43.912 56.3615L44.396 56.0975H44.404L54.104 49.2285C54.949 48.6255 55.701 47.9025 56.335 47.0835C57.105 46.1185 57.692 45.0225 58.067 43.8495V43.8505Z" fill="url(#paint2_radial_8049_324)"/>
<g opacity="0.9">
<g opacity="0.9">
<path d="M58.0758 43.8495C58.1348 43.6745 58.2158 43.4235 58.3008 43.1765V46.5065C58.2988 47.1405 58.2498 47.7735 58.1518 48.4005C57.8258 50.5795 56.7208 52.5685 55.0398 54.0065L53.5228 55.2485C51.7868 56.5395 50.0008 57.7825 48.1958 59.0255L44.3228 61.6925L43.9808 61.8875C43.5478 62.1635 43.0438 62.3085 42.5298 62.3055C42.2268 62.3085 41.9268 62.2565 41.6428 62.1525C41.2338 62.0145 40.8478 61.8165 40.4978 61.5665L28.7948 53.4555L23.0108 49.1755C22.6768 48.9415 22.3948 48.6415 22.1818 48.2955C21.9688 47.9535 21.8288 47.5725 21.7698 47.1755C21.7538 46.9415 21.7538 46.7075 21.7698 46.4735V42.5215C21.8368 42.6725 21.9208 42.8165 22.0188 42.9495C22.2918 43.2725 22.6068 43.5565 22.9568 43.7965L26.7498 46.6145C30.3868 49.2855 34.0798 51.8755 37.8278 54.3865L40.2538 56.0445L41.2898 56.5915H41.3108C41.7348 56.7565 42.1918 56.8205 42.6448 56.7795C43.0968 56.7395 43.5338 56.5955 43.9208 56.3605L44.4048 56.0975H44.4128L54.1128 49.2285C54.9578 48.6255 55.7098 47.9025 56.3438 47.0835C57.1138 46.1185 57.7008 45.0225 58.0758 43.8495Z" fill="url(#paint3_radial_8049_324)"/>
</g>
</g>
<path d="M32.7734 24.6017L29.9224 26.5277C29.6974 26.7537 29.6274 26.8937 29.9224 27.1017L30.2004 27.3277L34.0034 29.9847C34.0034 29.9847 37.7794 27.9337 38.5854 27.5877C40.0054 26.9507 41.5434 26.6247 43.0984 26.6317C44.1524 26.7027 45.1984 26.8607 46.2254 27.1057C47.5374 27.4837 48.7794 28.0697 49.9064 28.8427L50.9774 29.5547C51.0174 29.5947 51.0644 29.6267 51.1164 29.6497C51.1694 29.6727 51.2254 29.6837 51.2824 29.6837C51.3394 29.6837 51.3964 29.6717 51.4494 29.6497C51.5014 29.6267 51.5474 29.5947 51.5874 29.5547C51.6314 29.5227 51.6664 29.4817 51.6914 29.4337C51.9314 29.0607 52.1224 28.6577 52.2574 28.2357C52.3474 27.9007 52.3944 27.5557 52.3964 27.2087C52.3984 26.7137 52.2974 26.2227 52.1004 25.7687C51.9044 25.3147 51.6164 24.9057 51.2544 24.5687L50.5234 23.9277C49.6434 23.0797 48.6334 22.3787 47.5324 21.8517L46.6944 21.4327C45.2224 20.8757 43.6614 20.5937 42.0884 20.5997C40.3704 20.6617 37.4804 21.4337 32.7744 24.6037L32.7734 24.6017Z" fill="white"/>
<g opacity="0.9">
<path d="M21.5898 33.5165C21.5638 33.8095 21.5638 34.1035 21.5898 34.3965C21.7308 35.1005 22.1228 35.7305 22.6938 36.1725L23.7298 37.0025C29.1488 41.0485 34.7508 44.9205 40.2868 48.7445L41.1238 49.2245C41.4878 49.4155 41.8858 49.5355 42.2948 49.5755H42.4278C43.0878 49.5755 43.7288 49.3595 44.2518 48.9625L49.3868 45.3765C51.0598 44.1315 52.8648 42.9025 54.5208 41.6125C55.0668 41.1795 55.5738 40.7025 56.0378 40.1845C57.3178 38.6985 58.1198 36.8665 58.3408 34.9235C58.3408 34.2925 58.4218 33.5785 58.4218 32.8315V29.0975C58.4298 29.0255 58.4298 28.9525 58.4218 28.8815V28.9485C58.4078 29.6865 58.2838 30.4195 58.0548 31.1225C57.3978 33.1225 56.1198 34.8645 54.4038 36.1005C51.1578 38.4395 47.8978 40.7805 44.5698 43.0375L43.8108 43.4695C43.4428 43.6555 43.0358 43.7515 42.6238 43.7515H42.4238C42.2208 43.7435 42.0198 43.7125 41.8248 43.6575C41.6718 43.6175 41.5248 43.5585 41.3868 43.4825L40.1998 42.7815C36.2178 40.0705 32.2728 37.3045 28.3658 34.4825L23.2308 30.6245L22.4778 29.9235C22.1468 29.5885 21.9268 29.1625 21.8458 28.7005V28.5215C21.7928 28.5215 21.5878 33.5185 21.5878 33.5185L21.5898 33.5165Z" fill="url(#paint4_radial_8049_324)"/>
</g>
<path d="M58.067 43.8505C58.126 43.6755 58.207 43.4245 58.292 43.1775V46.5075C58.29 47.1415 58.241 47.7745 58.143 48.4015C57.817 50.5805 56.712 52.5695 55.031 54.0075L53.514 55.2495C51.778 56.5405 49.992 57.7835 48.187 59.0265L44.314 61.6935L43.972 61.8885C43.539 62.1645 43.035 62.3095 42.521 62.3065C42.218 62.3095 41.918 62.2575 41.634 62.1535C41.225 62.0155 40.839 61.8175 40.489 61.5675L28.786 53.4565L23.002 49.1765C22.668 48.9425 22.386 48.6425 22.173 48.2965C21.961 47.9555 21.82 47.5735 21.762 47.1765C21.746 46.9425 21.746 46.7085 21.762 46.4745V42.5225C21.829 42.6735 21.913 42.8175 22.011 42.9505C22.284 43.2735 22.599 43.5585 22.949 43.7975L26.742 46.6155C30.379 49.2855 34.072 51.8765 37.82 54.3875L40.245 56.0455L41.281 56.5925H41.302C41.726 56.7575 42.183 56.8215 42.636 56.7805C43.088 56.7405 43.525 56.5965 43.912 56.3615L44.396 56.0975H44.404L54.104 49.2285C54.949 48.6255 55.701 47.9025 56.335 47.0835C57.105 46.1185 57.692 45.0225 58.067 43.8495V43.8505Z" fill="url(#paint5_radial_8049_324)"/>
<g opacity="0.9">
<g opacity="0.9">
<path d="M58.0758 43.8495C58.1348 43.6745 58.2158 43.4235 58.3008 43.1765V46.5065C58.2988 47.1405 58.2498 47.7735 58.1518 48.4005C57.8258 50.5795 56.7208 52.5685 55.0398 54.0065L53.5228 55.2485C51.7868 56.5395 50.0008 57.7825 48.1958 59.0255L44.3228 61.6925L43.9808 61.8875C43.5478 62.1635 43.0438 62.3085 42.5298 62.3055C42.2268 62.3085 41.9268 62.2565 41.6428 62.1525C41.2338 62.0145 40.8478 61.8165 40.4978 61.5665L28.7948 53.4555L23.0108 49.1755C22.6768 48.9415 22.3948 48.6415 22.1818 48.2955C21.9688 47.9535 21.8288 47.5725 21.7698 47.1755C21.7538 46.9415 21.7538 46.7075 21.7698 46.4735V42.5215C21.8368 42.6725 21.9208 42.8165 22.0188 42.9495C22.2918 43.2725 22.6068 43.5565 22.9568 43.7965L26.7498 46.6145C30.3868 49.2855 34.0798 51.8755 37.8278 54.3865L40.2538 56.0445L41.2898 56.5915H41.3108C41.7348 56.7565 42.1918 56.8205 42.6448 56.7795C43.0968 56.7395 43.5338 56.5955 43.9208 56.3605L44.4048 56.0975H44.4128L54.1128 49.2285C54.9578 48.6255 55.7098 47.9025 56.3438 47.0835C57.1138 46.1185 57.7008 45.0225 58.0758 43.8495Z" fill="url(#paint6_radial_8049_324)"/>
</g>
</g>
<path d="M139.58 43.9899C138.6 40.1389 137.97 35.0989 137.83 33.6289H137.48C137.27 35.0289 136.709 39.4399 135.589 44.0599L129.988 66.9529H119.627L110.316 26.4179C109.476 22.7769 108.426 21.9379 105.695 21.5869V18.2959H125.437V21.5869C122.637 21.6569 121.376 22.5669 121.376 24.3869C121.376 24.8069 121.376 25.1569 121.516 25.6469L125.646 45.9499C126.556 50.4299 126.976 55.8209 127.046 57.2909H127.396C127.606 56.1009 128.166 51.6199 129.496 45.9499L136.077 18.2959H143.498L150.498 45.8089C151.898 51.4099 152.668 55.6109 152.878 57.2199H153.298C153.368 55.8899 153.788 51.3399 154.908 45.8789L158.969 26.1359C159.109 25.4359 159.179 24.9459 159.179 24.4559C159.179 22.2859 157.639 21.6559 154.908 21.5859V18.2949H170.17V21.5859C167.299 21.9359 166.04 22.7759 165.199 26.4169L155.748 66.9519H145.457L139.577 43.9889L139.58 43.9899Z" fill="white"/>
<path d="M204.472 62.6831V65.6941C203.002 66.6041 200.411 67.3741 197.331 67.3741C192.99 67.3741 190.68 65.4141 190.12 62.4741C188.93 64.9951 185.92 67.9351 180.389 67.9351C174.159 67.9351 169.258 64.7851 169.258 57.5741C169.258 49.3131 175.489 45.8831 186.48 45.8831C187.32 45.8831 188.93 45.9531 189.84 46.0231V42.8031C189.84 37.4121 188.509 35.1011 184.799 35.1011C180.808 35.1011 179.688 37.7621 179.198 41.4721H171.497V34.3311C175.207 32.1611 180.948 30.4111 186.619 30.4111C194.67 30.4111 200.271 33.9811 200.271 42.1721C200.271 44.2731 199.991 50.0831 199.991 56.4541C199.991 61.7041 200.761 62.5451 204.471 62.6841L204.472 62.6831ZM187.25 49.9421C182.489 49.9421 179.969 51.9721 179.969 56.2431C179.969 60.2331 181.509 61.4241 184.169 61.4241C185.989 61.4241 188.23 60.4441 189.49 58.8331L189.7 49.9421H187.25Z" fill="white"/>
<path d="M220.428 58.8324C220.428 62.8224 221.128 63.7324 224.768 63.8034V66.9534H205.726V63.8034C209.296 63.7334 210.066 62.8934 210.066 58.9034V26.4884C210.066 21.3784 209.016 20.6774 205.445 20.5374V17.4574L218.116 15.5674H219.166C219.516 16.2674 220.426 18.2974 220.426 22.4984V58.8324H220.428Z" fill="white"/>
<path d="M241.217 58.8324C241.217 62.8224 241.917 63.7324 245.557 63.8034V66.9534H226.515V63.8034C230.085 63.7334 230.855 62.8934 230.855 58.9034V26.4884C230.855 21.3784 229.805 20.6774 226.234 20.5374V17.4574L238.905 15.5674H239.955C240.305 16.2674 241.215 18.2974 241.215 22.4984V58.8324H241.217Z" fill="white"/>
<path d="M278.461 59.3222L280.141 62.1922C276.361 65.9032 271.741 67.7932 265.511 67.7932C254.659 67.7932 248.289 60.9332 248.289 49.0312C248.289 37.1992 255.15 30.4082 265.301 30.4082C276.292 30.4082 280.772 36.9192 280.772 47.6302V50.6412H259.49C259.77 58.5512 262.43 61.7722 269.151 61.7722C272.091 61.7722 275.451 60.9322 278.462 59.3222H278.461ZM259.559 45.8812H270.411C270.411 37.4102 269.011 34.7502 265.37 34.7502C261.8 34.7502 260.05 37.3402 259.559 45.8812Z" fill="white"/>
<path d="M304.778 36.6403H297.498V55.4723C297.498 60.6533 297.988 62.5433 301.488 62.5433C302.749 62.5433 303.869 62.3333 305.478 61.7023L306.529 65.3433C303.869 67.0243 300.858 67.8643 297.008 67.8643C290.638 67.8643 287.068 65.4843 287.068 57.7833V36.6403H282.867V33.0693L287.557 31.1793C287.978 28.0293 289.028 24.5983 290.778 21.9383L298.058 21.0283C297.708 23.5493 297.428 27.7493 297.428 31.3193H305.9L304.779 36.6403H304.778Z" fill="white"/>
</g>
<defs>
<linearGradient id="paint0_linear_8049_324" x1="21.0157" y1="1.54003" x2="61.2947" y2="79.722" gradientUnits="userSpaceOnUse">
<stop stop-color="#33343B"/>
<stop offset="1" stop-color="#18191E"/>
</linearGradient>
<radialGradient id="paint1_radial_8049_324" cx="0" cy="0" r="1" gradientUnits="userSpaceOnUse" gradientTransform="translate(35.0631 5.43657) rotate(54.83) scale(63.094 113.979)">
<stop stop-color="#0A0909"/>
<stop offset="1" stop-opacity="0.4"/>
</radialGradient>
<radialGradient id="paint2_radial_8049_324" cx="0" cy="0" r="1" gradientUnits="userSpaceOnUse" gradientTransform="translate(66.9878 26.641) rotate(127.07) scale(44.703 82.114)">
<stop/>
<stop offset="1" stop-color="#0F1010"/>
</radialGradient>
<radialGradient id="paint3_radial_8049_324" cx="0" cy="0" r="1" gradientUnits="userSpaceOnUse" gradientTransform="translate(35.5154 21.3346) rotate(53.368) scale(60.388 110.937)">
<stop/>
<stop offset="1" stop-opacity="0.93"/>
</radialGradient>
<radialGradient id="paint4_radial_8049_324" cx="0" cy="0" r="1" gradientUnits="userSpaceOnUse" gradientTransform="translate(35.0631 5.43657) rotate(54.83) scale(63.094 113.979)">
<stop stop-color="white"/>
<stop offset="1" stop-color="#FAFAFA"/>
</radialGradient>
<radialGradient id="paint5_radial_8049_324" cx="0" cy="0" r="1" gradientUnits="userSpaceOnUse" gradientTransform="translate(66.9878 26.641) rotate(127.07) scale(44.703 82.114)">
<stop stop-color="#F1F6FB"/>
<stop offset="1" stop-color="#E5F4F5" stop-opacity="0.31"/>
</radialGradient>
<radialGradient id="paint6_radial_8049_324" cx="0" cy="0" r="1" gradientUnits="userSpaceOnUse" gradientTransform="translate(35.1578 21.0708) rotate(53.368) scale(60.388 5.785)">
<stop stop-color="white"/>
<stop offset="1" stop-color="white"/>
</radialGradient>
<clipPath id="clip0_8049_324">
<rect width="306.523" height="82" fill="white"/>
</clipPath>
</defs>
</svg>
